<svg aria-roledescription="er" role="graphics-document document" viewBox="0 0 1187.998779296875 814" style="max-width: 1187.998779296875px;" xmlns="http://www.w3.org/2000/svg" width="100%" id="mermaidSvgChart"><style>#mermaidSvgChart{font-family:"trebuchet ms",verdana,arial,sans-serif;font-size:16px;fill:#ccc;}#mermaidSvgChart .error-icon{fill:#a44141;}#mermaidSvgChart .error-text{fill:#ddd;stroke:#ddd;}#mermaidSvgChart .edge-thickness-normal{stroke-width:2px;}#mermaidSvgChart .edge-thickness-thick{stroke-width:3.5px;}#mermaidSvgChart .edge-pattern-solid{stroke-dasharray:0;}#mermaidSvgChart .edge-pattern-dashed{stroke-dasharray:3;}#mermaidSvgChart .edge-pattern-dotted{stroke-dasharray:2;}#mermaidSvgChart .marker{fill:lightgrey;stroke:lightgrey;}#mermaidSvgChart .marker.cross{stroke:lightgrey;}#mermaidSvgChart svg{font-family:"trebuchet ms",verdana,arial,sans-serif;font-size:16px;}#mermaidSvgChart .entityBox{fill:#1f2020;stroke:#81B1DB;}#mermaidSvgChart .attributeBoxOdd{fill:hsl(0, 0%, 32%);stroke:#81B1DB;}#mermaidSvgChart .attributeBoxEven{fill:hsl(0, 0%, 22%);stroke:#81B1DB;}#mermaidSvgChart .relationshipLabelBox{fill:hsl(20, 1.5873015873%, 12.3529411765%);opacity:0.7;background-color:hsl(20, 1.5873015873%, 12.3529411765%);}#mermaidSvgChart .relationshipLabelBox rect{opacity:0.5;}#mermaidSvgChart .relationshipLine{stroke:lightgrey;}#mermaidSvgChart .entityTitleText{text-anchor:middle;font-size:18px;fill:#ccc;}#mermaidSvgChart :root{--mermaid-font-family:"trebuchet ms",verdana,arial,sans-serif;}</style><g></g><defs><marker orient="auto" markerHeight="18" markerWidth="18" refY="9" refX="0" id="ONLY_ONE_START"><path d="M9,0 L9,18 M15,0 L15,18" fill="none" stroke="gray"></path></marker></defs><defs><marker orient="auto" markerHeight="18" markerWidth="18" refY="9" refX="18" id="ONLY_ONE_END"><path d="M3,0 L3,18 M9,0 L9,18" fill="none" stroke="gray"></path></marker></defs><defs><marker orient="auto" markerHeight="18" markerWidth="30" refY="9" refX="0" id="ZERO_OR_ONE_START"><circle r="6" cy="9" cx="21" fill="white" stroke="gray"></circle><path d="M9,0 L9,18" fill="none" stroke="gray"></path></marker></defs><defs><marker orient="auto" markerHeight="18" markerWidth="30" refY="9" refX="30" id="ZERO_OR_ONE_END"><circle r="6" cy="9" cx="9" fill="white" stroke="gray"></circle><path d="M21,0 L21,18" fill="none" stroke="gray"></path></marker></defs><defs><marker orient="auto" markerHeight="36" markerWidth="45" refY="18" refX="18" id="ONE_OR_MORE_START"><path d="M0,18 Q 18,0 36,18 Q 18,36 0,18 M42,9 L42,27" fill="none" stroke="gray"></path></marker></defs><defs><marker orient="auto" markerHeight="36" markerWidth="45" refY="18" refX="27" id="ONE_OR_MORE_END"><path d="M3,9 L3,27 M9,18 Q27,0 45,18 Q27,36 9,18" fill="none" stroke="gray"></path></marker></defs><defs><marker orient="auto" markerHeight="36" markerWidth="57" refY="18" refX="18" id="ZERO_OR_MORE_START"><circle r="6" cy="18" cx="48" fill="white" stroke="gray"></circle><path d="M0,18 Q18,0 36,18 Q18,36 0,18" fill="none" stroke="gray"></path></marker></defs><defs><marker orient="auto" markerHeight="36" markerWidth="57" refY="18" refX="39" id="ZERO_OR_MORE_END"><circle r="6" cy="18" cx="9" fill="white" stroke="gray"></circle><path d="M21,18 Q39,0 57,18 Q39,36 21,18" fill="none" stroke="gray"></path></marker></defs><path style="stroke: gray; fill: none;" marker-start="url(#ONLY_ONE_START)" marker-end="url(#ONE_OR_MORE_END)" d="M96.482,378L96.482,386.333C96.482,394.667,96.482,411.333,106.482,428C116.482,444.667,136.482,461.333,146.482,469.667L156.482,478" class="er relationshipLine"></path><path style="stroke: gray; fill: none;" marker-start="url(#ONLY_ONE_START)" marker-end="url(#ONE_OR_MORE_END)" d="M153.432,149L143.94,157.333C134.448,165.667,115.465,182.333,105.973,199C96.482,215.667,96.482,232.333,96.482,240.667L96.482,249" class="er relationshipLine"></path><path style="stroke: gray; fill: none;" marker-start="url(#ONLY_ONE_START)" marker-end="url(#ONE_OR_MORE_END)" d="M300.364,149L309.855,157.333C319.347,165.667,338.33,182.333,347.822,204.25C357.314,226.167,357.314,253.333,357.314,266.917L357.314,280.5" class="er relationshipLine"></path><path style="stroke: gray; fill: none;" marker-start="url(#ONLY_ONE_START)" marker-end="url(#ONE_OR_MORE_END)" d="M572.729,346.5L546.654,360.083C520.579,373.667,468.429,400.833,431.034,422.75C393.639,444.667,371,461.333,359.68,469.667L348.36,478" class="er relationshipLine"></path><path style="stroke: gray; fill: none;" marker-start="url(#ONLY_ONE_START)" marker-end="url(#ONE_OR_MORE_END)" d="M690.154,346.5L712.413,360.083C734.673,373.667,779.191,400.833,801.45,429.75C823.709,458.667,823.709,489.333,823.709,504.667L823.709,520" class="er relationshipLine"></path><path style="stroke: gray; fill: none;" marker-start="url(#ONLY_ONE_START)" marker-end="url(#ONE_OR_MORE_END)" d="M1092.552,596.5L1092.552,610.083C1092.552,623.667,1092.552,650.833,1092.552,672.75C1092.552,694.667,1092.552,711.333,1092.552,719.667L1092.552,728" class="er relationshipLine"></path><path style="stroke: gray; fill: none;" marker-start="url(#ONLY_ONE_START)" marker-end="url(#ONE_OR_MORE_END)" d="M830.489,343.613L792.726,357.678C754.963,371.742,679.437,399.871,600.392,428.373C521.346,456.875,438.779,485.75,397.496,500.187L356.213,514.625" class="er relationshipLine"></path><path style="stroke: gray; fill: none;" marker-start="url(#ONLY_ONE_START)" marker-end="url(#ONE_OR_MORE_END)" d="M963.568,346.5L985.066,360.083C1006.563,373.667,1049.557,400.833,1071.054,428C1092.552,455.167,1092.552,482.333,1092.552,495.917L1092.552,509.5" class="er relationshipLine"></path><g transform="translate(136.75,478 )" id="entity-dboCURSOS-6a364c9e-92ef-5b46-b2cc-dee530248286"><rect height="150" width="219.46327209472656" y="0" x="0" class="er entityBox"></rect><text style="dominant-baseline: middle; text-anchor: middle; font-size: 12px;" transform="translate(109.73163604736328,12)" y="0" x="0" id="text-entity-dboCURSOS-6a364c9e-92ef-5b46-b2cc-dee530248286" class="er entityLabel">dbo.CURSOS</text><rect height="21" width="63.75370788574219" y="24" x="0" class="er attributeBoxOdd"></rect><text style="dominant-baseline: middle; font-size: 10.2px;" transform="translate(5,34.5)" y="0" x="0" id="text-entity-dboCURSOS-6a364c9e-92ef-5b46-b2cc-dee530248286-attr-1-type" class="er entityLabel">int</text><rect height="21" width="130.90625" y="24" x="63.75370788574219" class="er attributeBoxOdd"></rect><text style="dominant-baseline: middle; font-size: 10.2px;" transform="translate(68.75370788574219,34.5)" y="0" x="0" id="text-entity-dboCURSOS-6a364c9e-92ef-5b46-b2cc-dee530248286-attr-1-name" class="er entityLabel">ID_CURSO</text><rect height="21" width="24.803314208984375" y="24" x="194.6599578857422" class="er attributeBoxOdd"></rect><text style="dominant-baseline: middle; font-size: 10.2px;" transform="translate(199.6599578857422,34.5)" y="0" x="0" id="text-entity-dboCURSOS-6a364c9e-92ef-5b46-b2cc-dee530248286-attr-1-comment" class="er entityLabel">PK</text><rect height="21" width="63.75370788574219" y="45" x="0" class="er attributeBoxEven"></rect><text style="dominant-baseline: middle; font-size: 10.2px;" transform="translate(5,55.5)" y="0" x="0" id="text-entity-dboCURSOS-6a364c9e-92ef-5b46-b2cc-dee530248286-attr-2-type" class="er entityLabel">varchar(50)</text><rect height="21" width="130.90625" y="45" x="63.75370788574219" class="er attributeBoxEven"></rect><text style="dominant-baseline: middle; font-size: 10.2px;" transform="translate(68.75370788574219,55.5)" y="0" x="0" id="text-entity-dboCURSOS-6a364c9e-92ef-5b46-b2cc-dee530248286-attr-2-name" class="er entityLabel">NOMBRE_CURSO</text><rect height="21" width="24.803314208984375" y="45" x="194.6599578857422" class="er attributeBoxEven"></rect><text style="dominant-baseline: middle; font-size: 10.2px;" transform="translate(199.6599578857422,55.5)" y="0" x="0" id="text-entity-dboCURSOS-6a364c9e-92ef-5b46-b2cc-dee530248286-attr-2-comment" class="er entityLabel"></text><rect height="21" width="63.75370788574219" y="66" x="0" class="er attributeBoxOdd"></rect><text style="dominant-baseline: middle; font-size: 10.2px;" transform="translate(5,76.5)" y="0" x="0" id="text-entity-dboCURSOS-6a364c9e-92ef-5b46-b2cc-dee530248286-attr-3-type" class="er entityLabel">date</text><rect height="21" width="130.90625" y="66" x="63.75370788574219" class="er attributeBoxOdd"></rect><text style="dominant-baseline: middle; font-size: 10.2px;" transform="translate(68.75370788574219,76.5)" y="0" x="0" id="text-entity-dboCURSOS-6a364c9e-92ef-5b46-b2cc-dee530248286-attr-3-name" class="er entityLabel">FECHA_ESTRENO</text><rect height="21" width="24.803314208984375" y="66" x="194.6599578857422" class="er attributeBoxOdd"></rect><text style="dominant-baseline: middle; font-size: 10.2px;" transform="translate(199.6599578857422,76.5)" y="0" x="0" id="text-entity-dboCURSOS-6a364c9e-92ef-5b46-b2cc-dee530248286-attr-3-comment" class="er entityLabel"></text><rect height="21" width="63.75370788574219" y="87" x="0" class="er attributeBoxEven"></rect><text style="dominant-baseline: middle; font-size: 10.2px;" transform="translate(5,97.5)" y="0" x="0" id="text-entity-dboCURSOS-6a364c9e-92ef-5b46-b2cc-dee530248286-attr-4-type" class="er entityLabel">money</text><rect height="21" width="130.90625" y="87" x="63.75370788574219" class="er attributeBoxEven"></rect><text style="dominant-baseline: middle; font-size: 10.2px;" transform="translate(68.75370788574219,97.5)" y="0" x="0" id="text-entity-dboCURSOS-6a364c9e-92ef-5b46-b2cc-dee530248286-attr-4-name" class="er entityLabel">COSTO_CURSADO</text><rect height="21" width="24.803314208984375" y="87" x="194.6599578857422" class="er attributeBoxEven"></rect><text style="dominant-baseline: middle; font-size: 10.2px;" transform="translate(199.6599578857422,97.5)" y="0" x="0" id="text-entity-dboCURSOS-6a364c9e-92ef-5b46-b2cc-dee530248286-attr-4-comment" class="er entityLabel"></text><rect height="21" width="63.75370788574219" y="108" x="0" class="er attributeBoxOdd"></rect><text style="dominant-baseline: middle; font-size: 10.2px;" transform="translate(5,118.5)" y="0" x="0" id="text-entity-dboCURSOS-6a364c9e-92ef-5b46-b2cc-dee530248286-attr-5-type" class="er entityLabel">money</text><rect height="21" width="130.90625" y="108" x="63.75370788574219" class="er attributeBoxOdd"></rect><text style="dominant-baseline: middle; font-size: 10.2px;" transform="translate(68.75370788574219,118.5)" y="0" x="0" id="text-entity-dboCURSOS-6a364c9e-92ef-5b46-b2cc-dee530248286-attr-5-name" class="er entityLabel">COSTO_CERTIFICACION</text><rect height="21" width="24.803314208984375" y="108" x="194.6599578857422" class="er attributeBoxOdd"></rect><text style="dominant-baseline: middle; font-size: 10.2px;" transform="translate(199.6599578857422,118.5)" y="0" x="0" id="text-entity-dboCURSOS-6a364c9e-92ef-5b46-b2cc-dee530248286-attr-5-comment" class="er entityLabel"></text><rect height="21" width="63.75370788574219" y="129" x="0" class="er attributeBoxEven"></rect><text style="dominant-baseline: middle; font-size: 10.2px;" transform="translate(5,139.5)" y="0" x="0" id="text-entity-dboCURSOS-6a364c9e-92ef-5b46-b2cc-dee530248286-attr-6-type" class="er entityLabel">int</text><rect height="21" width="130.90625" y="129" x="63.75370788574219" class="er attributeBoxEven"></rect><text style="dominant-baseline: middle; font-size: 10.2px;" transform="translate(68.75370788574219,139.5)" y="0" x="0" id="text-entity-dboCURSOS-6a364c9e-92ef-5b46-b2cc-dee530248286-attr-6-name" class="er entityLabel">NIVEL</text><rect height="21" width="24.803314208984375" y="129" x="194.6599578857422" class="er attributeBoxEven"></rect><text style="dominant-baseline: middle; font-size: 10.2px;" transform="translate(199.6599578857422,139.5)" y="0" x="0" id="text-entity-dboCURSOS-6a364c9e-92ef-5b46-b2cc-dee530248286-attr-6-comment" class="er entityLabel"></text></g><g transform="translate(20,249 )" id="entity-dboCLASES-5c43035f-0510-5792-90b9-2f47a46e4b0d"><rect height="129" width="152.96327209472656" y="0" x="0" class="er entityBox"></rect><text style="dominant-baseline: middle; text-anchor: middle; font-size: 12px;" transform="translate(76.48163604736328,12)" y="0" x="0" id="text-entity-dboCLASES-5c43035f-0510-5792-90b9-2f47a46e4b0d" class="er entityLabel">dbo.CLASES</text><rect height="21" width="63.75370788574219" y="24" x="0" class="er attributeBoxOdd"></rect><text style="dominant-baseline: middle; font-size: 10.2px;" transform="translate(5,34.5)" y="0" x="0" id="text-entity-dboCLASES-5c43035f-0510-5792-90b9-2f47a46e4b0d-attr-1-type" class="er entityLabel">int</text><rect height="21" width="64.40625" y="24" x="63.75370788574219" class="er attributeBoxOdd"></rect><text style="dominant-baseline: middle; font-size: 10.2px;" transform="translate(68.75370788574219,34.5)" y="0" x="0" id="text-entity-dboCLASES-5c43035f-0510-5792-90b9-2f47a46e4b0d-attr-1-name" class="er entityLabel">ID_CLASE</text><rect height="21" width="24.803314208984375" y="24" x="128.1599578857422" class="er attributeBoxOdd"></rect><text style="dominant-baseline: middle; font-size: 10.2px;" transform="translate(133.1599578857422,34.5)" y="0" x="0" id="text-entity-dboCLASES-5c43035f-0510-5792-90b9-2f47a46e4b0d-attr-1-comment" class="er entityLabel">PK</text><rect height="21" width="63.75370788574219" y="45" x="0" class="er attributeBoxEven"></rect><text style="dominant-baseline: middle; font-size: 10.2px;" transform="translate(5,55.5)" y="0" x="0" id="text-entity-dboCLASES-5c43035f-0510-5792-90b9-2f47a46e4b0d-attr-2-type" class="er entityLabel">int</text><rect height="21" width="64.40625" y="45" x="63.75370788574219" class="er attributeBoxEven"></rect><text style="dominant-baseline: middle; font-size: 10.2px;" transform="translate(68.75370788574219,55.5)" y="0" x="0" id="text-entity-dboCLASES-5c43035f-0510-5792-90b9-2f47a46e4b0d-attr-2-name" class="er entityLabel">ID_CURSO</text><rect height="21" width="24.803314208984375" y="45" x="128.1599578857422" class="er attributeBoxEven"></rect><text style="dominant-baseline: middle; font-size: 10.2px;" transform="translate(133.1599578857422,55.5)" y="0" x="0" id="text-entity-dboCLASES-5c43035f-0510-5792-90b9-2f47a46e4b0d-attr-2-comment" class="er entityLabel">FK</text><rect height="21" width="63.75370788574219" y="66" x="0" class="er attributeBoxOdd"></rect><text style="dominant-baseline: middle; font-size: 10.2px;" transform="translate(5,76.5)" y="0" x="0" id="text-entity-dboCLASES-5c43035f-0510-5792-90b9-2f47a46e4b0d-attr-3-type" class="er entityLabel">varchar(50)</text><rect height="21" width="64.40625" y="66" x="63.75370788574219" class="er attributeBoxOdd"></rect><text style="dominant-baseline: middle; font-size: 10.2px;" transform="translate(68.75370788574219,76.5)" y="0" x="0" id="text-entity-dboCLASES-5c43035f-0510-5792-90b9-2f47a46e4b0d-attr-3-name" class="er entityLabel">NOMBRE</text><rect height="21" width="24.803314208984375" y="66" x="128.1599578857422" class="er attributeBoxOdd"></rect><text style="dominant-baseline: middle; font-size: 10.2px;" transform="translate(133.1599578857422,76.5)" y="0" x="0" id="text-entity-dboCLASES-5c43035f-0510-5792-90b9-2f47a46e4b0d-attr-3-comment" class="er entityLabel"></text><rect height="21" width="63.75370788574219" y="87" x="0" class="er attributeBoxEven"></rect><text style="dominant-baseline: middle; font-size: 10.2px;" transform="translate(5,97.5)" y="0" x="0" id="text-entity-dboCLASES-5c43035f-0510-5792-90b9-2f47a46e4b0d-attr-4-type" class="er entityLabel">int</text><rect height="21" width="64.40625" y="87" x="63.75370788574219" class="er attributeBoxEven"></rect><text style="dominant-baseline: middle; font-size: 10.2px;" transform="translate(68.75370788574219,97.5)" y="0" x="0" id="text-entity-dboCLASES-5c43035f-0510-5792-90b9-2f47a46e4b0d-attr-4-name" class="er entityLabel">NUMERO</text><rect height="21" width="24.803314208984375" y="87" x="128.1599578857422" class="er attributeBoxEven"></rect><text style="dominant-baseline: middle; font-size: 10.2px;" transform="translate(133.1599578857422,97.5)" y="0" x="0" id="text-entity-dboCLASES-5c43035f-0510-5792-90b9-2f47a46e4b0d-attr-4-comment" class="er entityLabel"></text><rect height="21" width="63.75370788574219" y="108" x="0" class="er attributeBoxOdd"></rect><text style="dominant-baseline: middle; font-size: 10.2px;" transform="translate(5,118.5)" y="0" x="0" id="text-entity-dboCLASES-5c43035f-0510-5792-90b9-2f47a46e4b0d-attr-5-type" class="er entityLabel">int</text><rect height="21" width="64.40625" y="108" x="63.75370788574219" class="er attributeBoxOdd"></rect><text style="dominant-baseline: middle; font-size: 10.2px;" transform="translate(68.75370788574219,118.5)" y="0" x="0" id="text-entity-dboCLASES-5c43035f-0510-5792-90b9-2f47a46e4b0d-attr-5-name" class="er entityLabel">DURACION</text><rect height="21" width="24.803314208984375" y="108" x="128.1599578857422" class="er attributeBoxOdd"></rect><text style="dominant-baseline: middle; font-size: 10.2px;" transform="translate(133.1599578857422,118.5)" y="0" x="0" id="text-entity-dboCLASES-5c43035f-0510-5792-90b9-2f47a46e4b0d-attr-5-comment" class="er entityLabel"></text></g><g transform="translate(272.96327209472656,280.5 )" id="entity-dboTIPOSCONTENIDO-654e9968-b0d6-5ad3-820a-5694b34319d3"><rect height="66" width="168.701171875" y="0" x="0" class="er entityBox"></rect><text style="dominant-baseline: middle; text-anchor: middle; font-size: 12px;" transform="translate(84.3505859375,12)" y="0" x="0" id="text-entity-dboTIPOSCONTENIDO-654e9968-b0d6-5ad3-820a-5694b34319d3" class="er entityLabel">dbo.TIPOS_CONTENIDO</text><rect height="21" width="72.14639790852864" y="24" x="0" class="er attributeBoxOdd"></rect><text style="dominant-baseline: middle; font-size: 10.2px;" transform="translate(5,34.5)" y="0" x="0" id="text-entity-dboTIPOSCONTENIDO-654e9968-b0d6-5ad3-820a-5694b34319d3-attr-1-type" class="er entityLabel">int</text><rect height="21" width="63.35876973470052" y="24" x="72.14639790852864" class="er attributeBoxOdd"></rect><text style="dominant-baseline: middle; font-size: 10.2px;" transform="translate(77.14639790852864,34.5)" y="0" x="0" id="text-entity-dboTIPOSCONTENIDO-654e9968-b0d6-5ad3-820a-5694b34319d3-attr-1-name" class="er entityLabel">ID_TIPO</text><rect height="21" width="33.196004231770836" y="24" x="135.50516764322916" class="er attributeBoxOdd"></rect><text style="dominant-baseline: middle; font-size: 10.2px;" transform="translate(140.50516764322916,34.5)" y="0" x="0" id="text-entity-dboTIPOSCONTENIDO-654e9968-b0d6-5ad3-820a-5694b34319d3-attr-1-comment" class="er entityLabel">PK</text><rect height="21" width="72.14639790852864" y="45" x="0" class="er attributeBoxEven"></rect><text style="dominant-baseline: middle; font-size: 10.2px;" transform="translate(5,55.5)" y="0" x="0" id="text-entity-dboTIPOSCONTENIDO-654e9968-b0d6-5ad3-820a-5694b34319d3-attr-2-type" class="er entityLabel">varchar(50)</text><rect height="21" width="63.35876973470052" y="45" x="72.14639790852864" class="er attributeBoxEven"></rect><text style="dominant-baseline: middle; font-size: 10.2px;" transform="translate(77.14639790852864,55.5)" y="0" x="0" id="text-entity-dboTIPOSCONTENIDO-654e9968-b0d6-5ad3-820a-5694b34319d3-attr-2-name" class="er entityLabel">NOMBRE</text><rect height="21" width="33.196004231770836" y="45" x="135.50516764322916" class="er attributeBoxEven"></rect><text style="dominant-baseline: middle; font-size: 10.2px;" transform="translate(140.50516764322916,55.5)" y="0" x="0" id="text-entity-dboTIPOSCONTENIDO-654e9968-b0d6-5ad3-820a-5694b34319d3-attr-2-comment" class="er entityLabel"></text></g><g transform="translate(139.04984664916992,20 )" id="entity-dboCONTENIDO-9b9db9c4-17db-5fda-bd02-a9f39989f05b"><rect height="129" width="175.69580078125" y="0" x="0" class="er entityBox"></rect><text style="dominant-baseline: middle; text-anchor: middle; font-size: 12px;" transform="translate(87.847900390625,12)" y="0" x="0" id="text-entity-dboCONTENIDO-9b9db9c4-17db-5fda-bd02-a9f39989f05b" class="er entityLabel">dbo.CONTENIDO</text><rect height="21" width="63.75370788574219" y="24" x="0" class="er attributeBoxOdd"></rect><text style="dominant-baseline: middle; font-size: 10.2px;" transform="translate(5,34.5)" y="0" x="0" id="text-entity-dboCONTENIDO-9b9db9c4-17db-5fda-bd02-a9f39989f05b-attr-1-type" class="er entityLabel">int</text><rect height="21" width="87.13877868652344" y="24" x="63.75370788574219" class="er attributeBoxOdd"></rect><text style="dominant-baseline: middle; font-size: 10.2px;" transform="translate(68.75370788574219,34.5)" y="0" x="0" id="text-entity-dboCONTENIDO-9b9db9c4-17db-5fda-bd02-a9f39989f05b-attr-1-name" class="er entityLabel">ID_CONTENIDO</text><rect height="21" width="24.803314208984375" y="24" x="150.89248657226562" class="er attributeBoxOdd"></rect><text style="dominant-baseline: middle; font-size: 10.2px;" transform="translate(155.89248657226562,34.5)" y="0" x="0" id="text-entity-dboCONTENIDO-9b9db9c4-17db-5fda-bd02-a9f39989f05b-attr-1-comment" class="er entityLabel">PK</text><rect height="21" width="63.75370788574219" y="45" x="0" class="er attributeBoxEven"></rect><text style="dominant-baseline: middle; font-size: 10.2px;" transform="translate(5,55.5)" y="0" x="0" id="text-entity-dboCONTENIDO-9b9db9c4-17db-5fda-bd02-a9f39989f05b-attr-2-type" class="er entityLabel">int</text><rect height="21" width="87.13877868652344" y="45" x="63.75370788574219" class="er attributeBoxEven"></rect><text style="dominant-baseline: middle; font-size: 10.2px;" transform="translate(68.75370788574219,55.5)" y="0" x="0" id="text-entity-dboCONTENIDO-9b9db9c4-17db-5fda-bd02-a9f39989f05b-attr-2-name" class="er entityLabel">ID_CLASE</text><rect height="21" width="24.803314208984375" y="45" x="150.89248657226562" class="er attributeBoxEven"></rect><text style="dominant-baseline: middle; font-size: 10.2px;" transform="translate(155.89248657226562,55.5)" y="0" x="0" id="text-entity-dboCONTENIDO-9b9db9c4-17db-5fda-bd02-a9f39989f05b-attr-2-comment" class="er entityLabel">FK</text><rect height="21" width="63.75370788574219" y="66" x="0" class="er attributeBoxOdd"></rect><text style="dominant-baseline: middle; font-size: 10.2px;" transform="translate(5,76.5)" y="0" x="0" id="text-entity-dboCONTENIDO-9b9db9c4-17db-5fda-bd02-a9f39989f05b-attr-3-type" class="er entityLabel">varchar(50)</text><rect height="21" width="87.13877868652344" y="66" x="63.75370788574219" class="er attributeBoxOdd"></rect><text style="dominant-baseline: middle; font-size: 10.2px;" transform="translate(68.75370788574219,76.5)" y="0" x="0" id="text-entity-dboCONTENIDO-9b9db9c4-17db-5fda-bd02-a9f39989f05b-attr-3-name" class="er entityLabel">NOMBRE</text><rect height="21" width="24.803314208984375" y="66" x="150.89248657226562" class="er attributeBoxOdd"></rect><text style="dominant-baseline: middle; font-size: 10.2px;" transform="translate(155.89248657226562,76.5)" y="0" x="0" id="text-entity-dboCONTENIDO-9b9db9c4-17db-5fda-bd02-a9f39989f05b-attr-3-comment" class="er entityLabel"></text><rect height="21" width="63.75370788574219" y="87" x="0" class="er attributeBoxEven"></rect><text style="dominant-baseline: middle; font-size: 10.2px;" transform="translate(5,97.5)" y="0" x="0" id="text-entity-dboCONTENIDO-9b9db9c4-17db-5fda-bd02-a9f39989f05b-attr-4-type" class="er entityLabel">int</text><rect height="21" width="87.13877868652344" y="87" x="63.75370788574219" class="er attributeBoxEven"></rect><text style="dominant-baseline: middle; font-size: 10.2px;" transform="translate(68.75370788574219,97.5)" y="0" x="0" id="text-entity-dboCONTENIDO-9b9db9c4-17db-5fda-bd02-a9f39989f05b-attr-4-name" class="er entityLabel">ID_TIPO</text><rect height="21" width="24.803314208984375" y="87" x="150.89248657226562" class="er attributeBoxEven"></rect><text style="dominant-baseline: middle; font-size: 10.2px;" transform="translate(155.89248657226562,97.5)" y="0" x="0" id="text-entity-dboCONTENIDO-9b9db9c4-17db-5fda-bd02-a9f39989f05b-attr-4-comment" class="er entityLabel">FK</text><rect height="21" width="63.75370788574219" y="108" x="0" class="er attributeBoxOdd"></rect><text style="dominant-baseline: middle; font-size: 10.2px;" transform="translate(5,118.5)" y="0" x="0" id="text-entity-dboCONTENIDO-9b9db9c4-17db-5fda-bd02-a9f39989f05b-attr-5-type" class="er entityLabel">bigint</text><rect height="21" width="87.13877868652344" y="108" x="63.75370788574219" class="er attributeBoxOdd"></rect><text style="dominant-baseline: middle; font-size: 10.2px;" transform="translate(68.75370788574219,118.5)" y="0" x="0" id="text-entity-dboCONTENIDO-9b9db9c4-17db-5fda-bd02-a9f39989f05b-attr-5-name" class="er entityLabel">TAMANIO</text><rect height="21" width="24.803314208984375" y="108" x="150.89248657226562" class="er attributeBoxOdd"></rect><text style="dominant-baseline: middle; font-size: 10.2px;" transform="translate(155.89248657226562,118.5)" y="0" x="0" id="text-entity-dboCONTENIDO-9b9db9c4-17db-5fda-bd02-a9f39989f05b-attr-5-comment" class="er entityLabel"></text></g><g transform="translate(1020.7901077270508,728 )" id="entity-dboTIPOSIDIOMA-25e0488b-21a9-5ade-ae5b-dc700cc5e3dd"><rect height="66" width="143.52310180664062" y="0" x="0" class="er entityBox"></rect><text style="dominant-baseline: middle; text-anchor: middle; font-size: 12px;" transform="translate(71.76155090332031,12)" y="0" x="0" id="text-entity-dboTIPOSIDIOMA-25e0488b-21a9-5ade-ae5b-dc700cc5e3dd" class="er entityLabel">dbo.TIPOS_IDIOMA</text><rect height="21" width="63.75370788574219" y="24" x="0" class="er attributeBoxOdd"></rect><text style="dominant-baseline: middle; font-size: 10.2px;" transform="translate(5,34.5)" y="0" x="0" id="text-entity-dboTIPOSIDIOMA-25e0488b-21a9-5ade-ae5b-dc700cc5e3dd-attr-1-type" class="er entityLabel">int</text><rect height="21" width="54.96607971191406" y="24" x="63.75370788574219" class="er attributeBoxOdd"></rect><text style="dominant-baseline: middle; font-size: 10.2px;" transform="translate(68.75370788574219,34.5)" y="0" x="0" id="text-entity-dboTIPOSIDIOMA-25e0488b-21a9-5ade-ae5b-dc700cc5e3dd-attr-1-name" class="er entityLabel">ID_TIPO</text><rect height="21" width="24.803314208984375" y="24" x="118.71978759765625" class="er attributeBoxOdd"></rect><text style="dominant-baseline: middle; font-size: 10.2px;" transform="translate(123.71978759765625,34.5)" y="0" x="0" id="text-entity-dboTIPOSIDIOMA-25e0488b-21a9-5ade-ae5b-dc700cc5e3dd-attr-1-comment" class="er entityLabel">PK</text><rect height="21" width="63.75370788574219" y="45" x="0" class="er attributeBoxEven"></rect><text style="dominant-baseline: middle; font-size: 10.2px;" transform="translate(5,55.5)" y="0" x="0" id="text-entity-dboTIPOSIDIOMA-25e0488b-21a9-5ade-ae5b-dc700cc5e3dd-attr-2-type" class="er entityLabel">varchar(50)</text><rect height="21" width="54.96607971191406" y="45" x="63.75370788574219" class="er attributeBoxEven"></rect><text style="dominant-baseline: middle; font-size: 10.2px;" transform="translate(68.75370788574219,55.5)" y="0" x="0" id="text-entity-dboTIPOSIDIOMA-25e0488b-21a9-5ade-ae5b-dc700cc5e3dd-attr-2-name" class="er entityLabel">NOMBRE</text><rect height="21" width="24.803314208984375" y="45" x="118.71978759765625" class="er attributeBoxEven"></rect><text style="dominant-baseline: middle; font-size: 10.2px;" transform="translate(123.71978759765625,55.5)" y="0" x="0" id="text-entity-dboTIPOSIDIOMA-25e0488b-21a9-5ade-ae5b-dc700cc5e3dd-attr-2-comment" class="er entityLabel"></text></g><g transform="translate(736.7374877929688,520 )" id="entity-dboCATEGORIAS-d1e01731-7b6f-5f17-b9b5-b367a8fa70ef"><rect height="66" width="173.94375610351562" y="0" x="0" class="er entityBox"></rect><text style="dominant-baseline: middle; text-anchor: middle; font-size: 12px;" transform="translate(86.97187805175781,12)" y="0" x="0" id="text-entity-dboCATEGORIAS-d1e01731-7b6f-5f17-b9b5-b367a8fa70ef" class="er entityLabel">dbo.CATEGORIAS</text><rect height="21" width="63.75370788574219" y="24" x="0" class="er attributeBoxOdd"></rect><text style="dominant-baseline: middle; font-size: 10.2px;" transform="translate(5,34.5)" y="0" x="0" id="text-entity-dboCATEGORIAS-d1e01731-7b6f-5f17-b9b5-b367a8fa70ef-attr-1-type" class="er entityLabel">int</text><rect height="21" width="85.38673400878906" y="24" x="63.75370788574219" class="er attributeBoxOdd"></rect><text style="dominant-baseline: middle; font-size: 10.2px;" transform="translate(68.75370788574219,34.5)" y="0" x="0" id="text-entity-dboCATEGORIAS-d1e01731-7b6f-5f17-b9b5-b367a8fa70ef-attr-1-name" class="er entityLabel">ID_CATEGORIA</text><rect height="21" width="24.803314208984375" y="24" x="149.14044189453125" class="er attributeBoxOdd"></rect><text style="dominant-baseline: middle; font-size: 10.2px;" transform="translate(154.14044189453125,34.5)" y="0" x="0" id="text-entity-dboCATEGORIAS-d1e01731-7b6f-5f17-b9b5-b367a8fa70ef-attr-1-comment" class="er entityLabel">PK</text><rect height="21" width="63.75370788574219" y="45" x="0" class="er attributeBoxEven"></rect><text style="dominant-baseline: middle; font-size: 10.2px;" transform="translate(5,55.5)" y="0" x="0" id="text-entity-dboCATEGORIAS-d1e01731-7b6f-5f17-b9b5-b367a8fa70ef-attr-2-type" class="er entityLabel">varchar(50)</text><rect height="21" width="85.38673400878906" y="45" x="63.75370788574219" class="er attributeBoxEven"></rect><text style="dominant-baseline: middle; font-size: 10.2px;" transform="translate(68.75370788574219,55.5)" y="0" x="0" id="text-entity-dboCATEGORIAS-d1e01731-7b6f-5f17-b9b5-b367a8fa70ef-attr-2-name" class="er entityLabel">NOMBRE</text><rect height="21" width="24.803314208984375" y="45" x="149.14044189453125" class="er attributeBoxEven"></rect><text style="dominant-baseline: middle; font-size: 10.2px;" transform="translate(154.14044189453125,55.5)" y="0" x="0" id="text-entity-dboCATEGORIAS-d1e01731-7b6f-5f17-b9b5-b367a8fa70ef-attr-2-comment" class="er entityLabel"></text></g><g transform="translate(541.6644439697266,280.5 )" id="entity-dboCURSOXCATEGORIA-4db07575-ad29-5cc3-9310-41c9a9d7ef0e"><rect height="66" width="188.82421875" y="0" x="0" class="er entityBox"></rect><text style="dominant-baseline: middle; text-anchor: middle; font-size: 12px;" transform="translate(94.412109375,12)" y="0" x="0" id="text-entity-dboCURSOXCATEGORIA-4db07575-ad29-5cc3-9310-41c9a9d7ef0e" class="er entityLabel">dbo.CURSO_X_CATEGORIA</text><rect height="21" width="33.93675231933594" y="24" x="0" class="er attributeBoxOdd"></rect><text style="dominant-baseline: middle; font-size: 10.2px;" transform="translate(5,34.5)" y="0" x="0" id="text-entity-dboCURSOXCATEGORIA-4db07575-ad29-5cc3-9310-41c9a9d7ef0e-attr-1-type" class="er entityLabel">int</text><rect height="21" width="98.38462829589844" y="24" x="33.93675231933594" class="er attributeBoxOdd"></rect><text style="dominant-baseline: middle; font-size: 10.2px;" transform="translate(38.93675231933594,34.5)" y="0" x="0" id="text-entity-dboCURSOXCATEGORIA-4db07575-ad29-5cc3-9310-41c9a9d7ef0e-attr-1-name" class="er entityLabel">ID_CURSO</text><rect height="21" width="56.502838134765625" y="24" x="132.32138061523438" class="er attributeBoxOdd"></rect><text style="dominant-baseline: middle; font-size: 10.2px;" transform="translate(137.32138061523438,34.5)" y="0" x="0" id="text-entity-dboCURSOXCATEGORIA-4db07575-ad29-5cc3-9310-41c9a9d7ef0e-attr-1-comment" class="er entityLabel">FK, PK</text><rect height="21" width="33.93675231933594" y="45" x="0" class="er attributeBoxEven"></rect><text style="dominant-baseline: middle; font-size: 10.2px;" transform="translate(5,55.5)" y="0" x="0" id="text-entity-dboCURSOXCATEGORIA-4db07575-ad29-5cc3-9310-41c9a9d7ef0e-attr-2-type" class="er entityLabel">int</text><rect height="21" width="98.38462829589844" y="45" x="33.93675231933594" class="er attributeBoxEven"></rect><text style="dominant-baseline: middle; font-size: 10.2px;" transform="translate(38.93675231933594,55.5)" y="0" x="0" id="text-entity-dboCURSOXCATEGORIA-4db07575-ad29-5cc3-9310-41c9a9d7ef0e-attr-2-name" class="er entityLabel">ID_CATEGORIA</text><rect height="21" width="56.502838134765625" y="45" x="132.32138061523438" class="er attributeBoxEven"></rect><text style="dominant-baseline: middle; font-size: 10.2px;" transform="translate(137.32138061523438,55.5)" y="0" x="0" id="text-entity-dboCURSOXCATEGORIA-4db07575-ad29-5cc3-9310-41c9a9d7ef0e-attr-2-comment" class="er entityLabel">FK, PK</text></g><g transform="translate(1017.1045761108398,509.5 )" id="entity-dboIDIOMA-d7c01517-c529-59ef-a641-79e2150fc2a0"><rect height="87" width="150.8941650390625" y="0" x="0" class="er entityBox"></rect><text style="dominant-baseline: middle; text-anchor: middle; font-size: 12px;" transform="translate(75.44708251953125,12)" y="0" x="0" id="text-entity-dboIDIOMA-d7c01517-c529-59ef-a641-79e2150fc2a0" class="er entityLabel">dbo.IDIOMA</text><rect height="21" width="63.75370788574219" y="24" x="0" class="er attributeBoxOdd"></rect><text style="dominant-baseline: middle; font-size: 10.2px;" transform="translate(5,34.5)" y="0" x="0" id="text-entity-dboIDIOMA-d7c01517-c529-59ef-a641-79e2150fc2a0-attr-1-type" class="er entityLabel">int</text><rect height="21" width="62.33714294433594" y="24" x="63.75370788574219" class="er attributeBoxOdd"></rect><text style="dominant-baseline: middle; font-size: 10.2px;" transform="translate(68.75370788574219,34.5)" y="0" x="0" id="text-entity-dboIDIOMA-d7c01517-c529-59ef-a641-79e2150fc2a0-attr-1-name" class="er entityLabel">ID_IDIOMA</text><rect height="21" width="24.803314208984375" y="24" x="126.09085083007812" class="er attributeBoxOdd"></rect><text style="dominant-baseline: middle; font-size: 10.2px;" transform="translate(131.09085083007812,34.5)" y="0" x="0" id="text-entity-dboIDIOMA-d7c01517-c529-59ef-a641-79e2150fc2a0-attr-1-comment" class="er entityLabel">PK</text><rect height="21" width="63.75370788574219" y="45" x="0" class="er attributeBoxEven"></rect><text style="dominant-baseline: middle; font-size: 10.2px;" transform="translate(5,55.5)" y="0" x="0" id="text-entity-dboIDIOMA-d7c01517-c529-59ef-a641-79e2150fc2a0-attr-2-type" class="er entityLabel">varchar(50)</text><rect height="21" width="62.33714294433594" y="45" x="63.75370788574219" class="er attributeBoxEven"></rect><text style="dominant-baseline: middle; font-size: 10.2px;" transform="translate(68.75370788574219,55.5)" y="0" x="0" id="text-entity-dboIDIOMA-d7c01517-c529-59ef-a641-79e2150fc2a0-attr-2-name" class="er entityLabel">NOMBRE</text><rect height="21" width="24.803314208984375" y="45" x="126.09085083007812" class="er attributeBoxEven"></rect><text style="dominant-baseline: middle; font-size: 10.2px;" transform="translate(131.09085083007812,55.5)" y="0" x="0" id="text-entity-dboIDIOMA-d7c01517-c529-59ef-a641-79e2150fc2a0-attr-2-comment" class="er entityLabel"></text><rect height="21" width="63.75370788574219" y="66" x="0" class="er attributeBoxOdd"></rect><text style="dominant-baseline: middle; font-size: 10.2px;" transform="translate(5,76.5)" y="0" x="0" id="text-entity-dboIDIOMA-d7c01517-c529-59ef-a641-79e2150fc2a0-attr-3-type" class="er entityLabel">int</text><rect height="21" width="62.33714294433594" y="66" x="63.75370788574219" class="er attributeBoxOdd"></rect><text style="dominant-baseline: middle; font-size: 10.2px;" transform="translate(68.75370788574219,76.5)" y="0" x="0" id="text-entity-dboIDIOMA-d7c01517-c529-59ef-a641-79e2150fc2a0-attr-3-name" class="er entityLabel">ID_TIPO</text><rect height="21" width="24.803314208984375" y="66" x="126.09085083007812" class="er attributeBoxOdd"></rect><text style="dominant-baseline: middle; font-size: 10.2px;" transform="translate(131.09085083007812,76.5)" y="0" x="0" id="text-entity-dboIDIOMA-d7c01517-c529-59ef-a641-79e2150fc2a0-attr-3-comment" class="er entityLabel">FK</text></g><g transform="translate(830.4886627197266,280.5 )" id="entity-dboCURSOXIDIOMA-0f79f5c6-9b03-549f-9c09-cdd56be12e54"><rect height="66" width="161.70703125" y="0" x="0" class="er entityBox"></rect><text style="dominant-baseline: middle; text-anchor: middle; font-size: 12px;" transform="translate(80.853515625,12)" y="0" x="0" id="text-entity-dboCURSOXIDIOMA-0f79f5c6-9b03-549f-9c09-cdd56be12e54" class="er entityLabel">dbo.CURSO_X_IDIOMA</text><rect height="21" width="32.435150146484375" y="24" x="0" class="er attributeBoxOdd"></rect><text style="dominant-baseline: middle; font-size: 10.2px;" transform="translate(5,34.5)" y="0" x="0" id="text-entity-dboCURSOXIDIOMA-0f79f5c6-9b03-549f-9c09-cdd56be12e54-attr-1-type" class="er entityLabel">int</text><rect height="21" width="74.27064514160156" y="24" x="32.435150146484375" class="er attributeBoxOdd"></rect><text style="dominant-baseline: middle; font-size: 10.2px;" transform="translate(37.435150146484375,34.5)" y="0" x="0" id="text-entity-dboCURSOXIDIOMA-0f79f5c6-9b03-549f-9c09-cdd56be12e54-attr-1-name" class="er entityLabel">ID_CURSO</text><rect height="21" width="55.00123596191406" y="24" x="106.70579528808594" class="er attributeBoxOdd"></rect><text style="dominant-baseline: middle; font-size: 10.2px;" transform="translate(111.70579528808594,34.5)" y="0" x="0" id="text-entity-dboCURSOXIDIOMA-0f79f5c6-9b03-549f-9c09-cdd56be12e54-attr-1-comment" class="er entityLabel">FK, PK</text><rect height="21" width="32.435150146484375" y="45" x="0" class="er attributeBoxEven"></rect><text style="dominant-baseline: middle; font-size: 10.2px;" transform="translate(5,55.5)" y="0" x="0" id="text-entity-dboCURSOXIDIOMA-0f79f5c6-9b03-549f-9c09-cdd56be12e54-attr-2-type" class="er entityLabel">int</text><rect height="21" width="74.27064514160156" y="45" x="32.435150146484375" class="er attributeBoxEven"></rect><text style="dominant-baseline: middle; font-size: 10.2px;" transform="translate(37.435150146484375,55.5)" y="0" x="0" id="text-entity-dboCURSOXIDIOMA-0f79f5c6-9b03-549f-9c09-cdd56be12e54-attr-2-name" class="er entityLabel">ID_IDIOMA</text><rect height="21" width="55.00123596191406" y="45" x="106.70579528808594" class="er attributeBoxEven"></rect><text style="dominant-baseline: middle; font-size: 10.2px;" transform="translate(111.70579528808594,55.5)" y="0" x="0" id="text-entity-dboCURSOXIDIOMA-0f79f5c6-9b03-549f-9c09-cdd56be12e54-attr-2-comment" class="er entityLabel">FK, PK</text></g><g transform="translate(414.7456474304199,20 )" id="entity-dbosysdiagrams-4f00214b-2364-5dc5-8431-87d7a0340b57"><rect height="129" width="160.8273468017578" y="0" x="0" class="er entityBox"></rect><text style="dominant-baseline: middle; text-anchor: middle; font-size: 12px;" transform="translate(80.4136734008789,12)" y="0" x="0" id="text-entity-dbosysdiagrams-4f00214b-2364-5dc5-8431-87d7a0340b57" class="er entityLabel">dbo.sysdiagrams</text><rect height="21" width="74.09919738769531" y="24" x="0" class="er attributeBoxOdd"></rect><text style="dominant-baseline: middle; font-size: 10.2px;" transform="translate(5,34.5)" y="0" x="0" id="text-entity-dbosysdiagrams-4f00214b-2364-5dc5-8431-87d7a0340b57-attr-1-type" class="er entityLabel">nvarchar(128)</text><rect height="21" width="61.924835205078125" y="24" x="74.09919738769531" class="er attributeBoxOdd"></rect><text style="dominant-baseline: middle; font-size: 10.2px;" transform="translate(79.09919738769531,34.5)" y="0" x="0" id="text-entity-dbosysdiagrams-4f00214b-2364-5dc5-8431-87d7a0340b57-attr-1-name" class="er entityLabel">name</text><rect height="21" width="24.803314208984375" y="24" x="136.02403259277344" class="er attributeBoxOdd"></rect><text style="dominant-baseline: middle; font-size: 10.2px;" transform="translate(141.02403259277344,34.5)" y="0" x="0" id="text-entity-dbosysdiagrams-4f00214b-2364-5dc5-8431-87d7a0340b57-attr-1-comment" class="er entityLabel"></text><rect height="21" width="74.09919738769531" y="45" x="0" class="er attributeBoxEven"></rect><text style="dominant-baseline: middle; font-size: 10.2px;" transform="translate(5,55.5)" y="0" x="0" id="text-entity-dbosysdiagrams-4f00214b-2364-5dc5-8431-87d7a0340b57-attr-2-type" class="er entityLabel">int</text><rect height="21" width="61.924835205078125" y="45" x="74.09919738769531" class="er attributeBoxEven"></rect><text style="dominant-baseline: middle; font-size: 10.2px;" transform="translate(79.09919738769531,55.5)" y="0" x="0" id="text-entity-dbosysdiagrams-4f00214b-2364-5dc5-8431-87d7a0340b57-attr-2-name" class="er entityLabel">principal_id</text><rect height="21" width="24.803314208984375" y="45" x="136.02403259277344" class="er attributeBoxEven"></rect><text style="dominant-baseline: middle; font-size: 10.2px;" transform="translate(141.02403259277344,55.5)" y="0" x="0" id="text-entity-dbosysdiagrams-4f00214b-2364-5dc5-8431-87d7a0340b57-attr-2-comment" class="er entityLabel"></text><rect height="21" width="74.09919738769531" y="66" x="0" class="er attributeBoxOdd"></rect><text style="dominant-baseline: middle; font-size: 10.2px;" transform="translate(5,76.5)" y="0" x="0" id="text-entity-dbosysdiagrams-4f00214b-2364-5dc5-8431-87d7a0340b57-attr-3-type" class="er entityLabel">int</text><rect height="21" width="61.924835205078125" y="66" x="74.09919738769531" class="er attributeBoxOdd"></rect><text style="dominant-baseline: middle; font-size: 10.2px;" transform="translate(79.09919738769531,76.5)" y="0" x="0" id="text-entity-dbosysdiagrams-4f00214b-2364-5dc5-8431-87d7a0340b57-attr-3-name" class="er entityLabel">diagram_id</text><rect height="21" width="24.803314208984375" y="66" x="136.02403259277344" class="er attributeBoxOdd"></rect><text style="dominant-baseline: middle; font-size: 10.2px;" transform="translate(141.02403259277344,76.5)" y="0" x="0" id="text-entity-dbosysdiagrams-4f00214b-2364-5dc5-8431-87d7a0340b57-attr-3-comment" class="er entityLabel">PK</text><rect height="21" width="74.09919738769531" y="87" x="0" class="er attributeBoxEven"></rect><text style="dominant-baseline: middle; font-size: 10.2px;" transform="translate(5,97.5)" y="0" x="0" id="text-entity-dbosysdiagrams-4f00214b-2364-5dc5-8431-87d7a0340b57-attr-4-type" class="er entityLabel">int</text><rect height="21" width="61.924835205078125" y="87" x="74.09919738769531" class="er attributeBoxEven"></rect><text style="dominant-baseline: middle; font-size: 10.2px;" transform="translate(79.09919738769531,97.5)" y="0" x="0" id="text-entity-dbosysdiagrams-4f00214b-2364-5dc5-8431-87d7a0340b57-attr-4-name" class="er entityLabel">version</text><rect height="21" width="24.803314208984375" y="87" x="136.02403259277344" class="er attributeBoxEven"></rect><text style="dominant-baseline: middle; font-size: 10.2px;" transform="translate(141.02403259277344,97.5)" y="0" x="0" id="text-entity-dbosysdiagrams-4f00214b-2364-5dc5-8431-87d7a0340b57-attr-4-comment" class="er entityLabel"></text><rect height="21" width="74.09919738769531" y="108" x="0" class="er attributeBoxOdd"></rect><text style="dominant-baseline: middle; font-size: 10.2px;" transform="translate(5,118.5)" y="0" x="0" id="text-entity-dbosysdiagrams-4f00214b-2364-5dc5-8431-87d7a0340b57-attr-5-type" class="er entityLabel">varbinary(-1)</text><rect height="21" width="61.924835205078125" y="108" x="74.09919738769531" class="er attributeBoxOdd"></rect><text style="dominant-baseline: middle; font-size: 10.2px;" transform="translate(79.09919738769531,118.5)" y="0" x="0" id="text-entity-dbosysdiagrams-4f00214b-2364-5dc5-8431-87d7a0340b57-attr-5-name" class="er entityLabel">definition</text><rect height="21" width="24.803314208984375" y="108" x="136.02403259277344" class="er attributeBoxOdd"></rect><text style="dominant-baseline: middle; font-size: 10.2px;" transform="translate(141.02403259277344,118.5)" y="0" x="0" id="text-entity-dbosysdiagrams-4f00214b-2364-5dc5-8431-87d7a0340b57-attr-5-comment" class="er entityLabel"></text></g><rect height="14" width="62.67578125" y="428.9300231933594" x="80.60281372070312" class="er relationshipLabelBox"></rect><text style="text-anchor: middle; dominant-baseline: middle; font-size: 12px;" y="435.9300231933594" x="111.94070434570312" id="rel1" class="er relationshipLabel">ID_CURSO</text><rect height="14" width="58.03125" y="184.5979461669922" x="81.7548828125" class="er relationshipLabelBox"></rect><text style="text-anchor: middle; dominant-baseline: middle; font-size: 12px;" y="191.5979461669922" x="110.7705078125" id="rel2" class="er relationshipLabel">ID_CLASE</text><rect height="14" width="47.341796875" y="199.0557098388672" x="324.9071960449219" class="er relationshipLabelBox"></rect><text style="text-anchor: middle; dominant-baseline: middle; font-size: 12px;" y="206.0557098388672" x="348.5780944824219" id="rel3" class="er relationshipLabel">ID_TIPO</text><rect height="14" width="62.67578125" y="400.5552062988281" x="426.3875732421875" class="er relationshipLabelBox"></rect><text style="text-anchor: middle; dominant-baseline: middle; font-size: 12px;" y="407.5552062988281" x="457.7254638671875" id="rel4" class="er relationshipLabel">ID_CURSO</text><rect height="14" width="89.455078125" y="406.30169677734375" x="741.6810302734375" class="er relationshipLabelBox"></rect><text style="text-anchor: middle; dominant-baseline: middle; font-size: 12px;" y="413.30169677734375" x="786.4085693359375" id="rel5" class="er relationshipLabel">ID_CATEGORIA</text><rect height="14" width="47.341796875" y="655.25" x="1068.881103515625" class="er relationshipLabelBox"></rect><text style="text-anchor: middle; dominant-baseline: middle; font-size: 12px;" y="662.25" x="1092.552001953125" id="rel6" class="er relationshipLabel">ID_TIPO</text><rect height="14" width="62.67578125" y="423.7015075683594" x="562.583984375" class="er relationshipLabelBox"></rect><text style="text-anchor: middle; dominant-baseline: middle; font-size: 12px;" y="430.7015075683594" x="593.921875" id="rel7" class="er relationshipLabel">ID_CURSO</text><rect height="14" width="62.337890625" y="403.1947326660156" x="1023.0113525390625" class="er relationshipLabelBox"></rect><text style="text-anchor: middle; dominant-baseline: middle; font-size: 12px;" y="410.1947326660156" x="1054.1802978515625" id="rel8" class="er relationshipLabel">ID_IDIOMA</text></svg>